<?xml version="1.0" encoding="utf-8"?>
<!-- Generator: Adobe Illustrator 24.3.0, SVG Export Plug-In . SVG Version: 6.00 Build 0)  -->
<svg version="1.1" id="Capa_1" xmlns="http://www.w3.org/2000/svg" xmlns:xlink="http://www.w3.org/1999/xlink" x="0px" y="0px"
	 viewBox="0 0 16 16" style="enable-background:new 0 0 16 16;" xml:space="preserve">
<style type="text/css">
	.st0{fill:#1C4C9C;}
	.st1{fill:#0095B6;}
	.st2{fill:#462778;}
	.st3{fill:#E8582B;}
	.st4{fill:#F8A91F;}
</style>
<path class="st0" d="M5.39,13.46c-1.09,0-2.04-0.22-2.85-0.67s-1.43-1.06-1.88-1.85C0.22,10.15,0,9.24,0,8.2
	c0-1.1,0.23-2.08,0.7-2.93s1.12-1.52,1.96-2C3.5,2.79,4.47,2.54,5.59,2.54c0.68,0,1.28,0.08,1.8,0.23C8.03,2.95,8.42,3.59,8.3,4.25
	L8.29,4.28C8.16,4.97,7.5,5.41,6.81,5.3C6.55,5.26,6.3,5.24,6.04,5.24c-0.83,0-1.48,0.25-1.96,0.74S3.37,7.17,3.37,8.05
	s0.21,1.58,0.65,2.08c0.43,0.5,0.98,0.74,1.65,0.74c0.24,0,0.45-0.02,0.61-0.06v-2.6l2.63-0.3v4.75c-0.58,0.26-1.16,0.46-1.76,0.59
	C6.54,13.39,5.96,13.46,5.39,13.46L5.39,13.46z"/>
<path class="st1" d="M10.69,13.27L10.69,13.27c-0.78-0.33-1.13-1.23-0.77-2l2.74-5.92H8.9V2.61H16v2.37l-3.37,7.52
	C12.3,13.25,11.44,13.58,10.69,13.27z"/>
<path class="st2" d="M5.39,28.46c-1.09,0-2.04-0.22-2.85-0.67c-0.8-0.45-1.43-1.06-1.88-1.85C0.22,25.15,0,24.24,0,23.2
	c0-1.1,0.23-2.08,0.7-2.93s1.12-1.52,1.96-2c0.84-0.49,1.82-0.73,2.93-0.73c0.68,0,1.28,0.08,1.8,0.23
	c0.64,0.18,1.04,0.82,0.92,1.48l-0.01,0.03c-0.13,0.69-0.79,1.13-1.49,1.02c-0.25-0.04-0.51-0.06-0.76-0.06
	c-0.83,0-1.48,0.25-1.96,0.74s-0.71,1.18-0.71,2.06s0.21,1.58,0.65,2.08c0.43,0.5,0.98,0.74,1.65,0.74c0.24,0,0.45-0.02,0.61-0.06
	v-2.6l2.63-0.3v4.75c-0.58,0.26-1.16,0.46-1.76,0.59C6.54,28.39,5.96,28.46,5.39,28.46L5.39,28.46z"/>
<path class="st0" d="M10.69,28.27L10.69,28.27c-0.78-0.33-1.13-1.23-0.77-2l2.74-5.92H8.9v-2.74H16v2.37l-3.37,7.52
	C12.3,28.25,11.44,28.58,10.69,28.27z"/>
<path class="st3" d="M-24.04,41.15c-0.86,0-1.6-0.17-2.23-0.52c-0.63-0.35-1.12-0.83-1.47-1.45s-0.52-1.33-0.52-2.14
	c0-0.86,0.18-1.63,0.55-2.29c0.36-0.66,0.87-1.19,1.53-1.57c0.66-0.38,1.42-0.57,2.29-0.57c0.53,0,1,0.06,1.41,0.18
	c0.5,0.14,0.81,0.64,0.72,1.16l0,0.03c-0.1,0.54-0.62,0.88-1.16,0.8c-0.2-0.03-0.4-0.05-0.6-0.05c-0.65,0-1.16,0.19-1.53,0.58
	c-0.37,0.39-0.56,0.93-0.56,1.61s0.17,1.24,0.5,1.63c0.34,0.39,0.77,0.58,1.29,0.58c0.19,0,0.35-0.02,0.48-0.05v-2.03l2.05-0.24
	v3.72c-0.45,0.21-0.91,0.36-1.38,0.46C-23.14,41.1-23.59,41.15-24.04,41.15L-24.04,41.15z"/>
<path class="st3" d="M-13.93,41.15c-0.57,0-1.04-0.09-1.41-0.26s-0.67-0.41-0.89-0.71c-0.22-0.3-0.39-0.65-0.5-1.06
	c-0.11-0.4-0.19-0.84-0.23-1.31h-0.56v3.13h-2.6v-8.17h3.36c1.3,0,2.23,0.23,2.81,0.68c0.57,0.46,0.86,1.07,0.86,1.85
	c0,0.47-0.13,0.88-0.38,1.25s-0.66,0.68-1.22,0.92c0.03,0.17,0.06,0.32,0.08,0.43c0.02,0.11,0.06,0.23,0.11,0.37
	c0.1,0.28,0.23,0.48,0.39,0.59c0.15,0.11,0.37,0.17,0.64,0.17c0.17,0,0.35-0.02,0.52-0.07l0.14,1.95c-0.16,0.06-0.33,0.12-0.5,0.16
	S-13.7,41.15-13.93,41.15L-13.93,41.15z M-17.52,36.2h0.45c0.59,0,1-0.07,1.24-0.2c0.24-0.13,0.36-0.35,0.36-0.67
	c0-0.27-0.1-0.47-0.3-0.59c-0.2-0.12-0.51-0.18-0.94-0.18h-0.82V36.2L-17.52,36.2z"/>
<path class="st3" d="M-8.27,41.15c-0.79,0-1.49-0.14-2.09-0.43s-1.07-0.69-1.4-1.23c-0.33-0.53-0.5-1.17-0.5-1.92v-4.79h2.64v4.67
	c0,0.53,0.13,0.92,0.39,1.17S-8.64,39-8.22,39c0.44,0,0.78-0.13,1.02-0.38c0.23-0.25,0.35-0.6,0.35-1.04v-4.78h2.67v4.78
	c0,0.7-0.17,1.33-0.52,1.86c-0.35,0.54-0.83,0.96-1.44,1.26C-6.76,41-7.47,41.15-8.27,41.15L-8.27,41.15z"/>
<path class="st3" d="M-3.04,39.65v-6.87h2.77c1.35,0,2.36,0.22,3.05,0.66c0.68,0.44,1.03,1.09,1.03,1.94c0,0.59-0.15,1.1-0.45,1.51
	c-0.3,0.42-0.71,0.73-1.25,0.95c-0.54,0.22-1.17,0.33-1.9,0.33h-0.62v1.48c0,0.72-0.59,1.31-1.31,1.31l0,0
	C-2.46,40.96-3.05,40.37-3.04,39.65L-3.04,39.65z M0.09,36.52c0.42,0,0.74-0.09,0.97-0.26s0.34-0.44,0.34-0.78
	c0-0.32-0.11-0.57-0.33-0.73c-0.22-0.16-0.54-0.24-0.96-0.24h-0.53v2.02H0.09L0.09,36.52z"/>
<path class="st3" d="M8.66,41.15c-0.86,0-1.62-0.18-2.28-0.55c-0.66-0.36-1.17-0.87-1.54-1.51c-0.37-0.64-0.55-1.38-0.55-2.21
	c0-0.83,0.18-1.58,0.55-2.22c0.37-0.64,0.88-1.14,1.54-1.51s1.42-0.55,2.28-0.55s1.62,0.18,2.28,0.54c0.66,0.36,1.17,0.86,1.54,1.5
	c0.37,0.64,0.55,1.39,0.55,2.23c0,0.85-0.18,1.57-0.55,2.21c-0.37,0.64-0.88,1.14-1.54,1.51S9.53,41.15,8.66,41.15L8.66,41.15z
	 M8.66,38.99c0.5,0,0.91-0.19,1.23-0.58c0.32-0.39,0.48-0.9,0.48-1.53c0-0.43-0.07-0.8-0.22-1.13s-0.35-0.58-0.61-0.77
	c-0.26-0.19-0.56-0.28-0.9-0.28c-0.5,0-0.91,0.2-1.22,0.6c-0.32,0.4-0.48,0.92-0.48,1.57s0.16,1.14,0.48,1.53
	C7.74,38.8,8.16,38.99,8.66,38.99L8.66,38.99z"/>
<path class="st4" d="M18.71,41.15c-0.5,0-1.01-0.06-1.52-0.18c-0.51-0.12-0.95-0.29-1.31-0.49l0.43-1.94
	c0.46,0.25,0.89,0.41,1.29,0.48c0.4,0.08,0.77,0.11,1.11,0.11c0.32,0,0.56-0.05,0.72-0.15c0.16-0.1,0.24-0.24,0.24-0.42
	c0-0.16-0.09-0.28-0.27-0.37c-0.18-0.09-0.42-0.18-0.71-0.26c-0.29-0.08-0.6-0.17-0.92-0.28c-0.32-0.11-0.63-0.25-0.92-0.43
	c-0.29-0.18-0.52-0.42-0.71-0.71c-0.18-0.3-0.27-0.67-0.27-1.12c0-0.57,0.14-1.06,0.42-1.48c0.28-0.42,0.67-0.74,1.19-0.96
	c0.51-0.23,1.12-0.34,1.82-0.34c0.47,0,0.92,0.06,1.37,0.18c0.45,0.12,0.81,0.29,1.07,0.49l-0.4,1.75c-0.4-0.17-0.77-0.29-1.09-0.36
	c-0.32-0.07-0.62-0.11-0.91-0.11c-0.33,0-0.59,0.05-0.76,0.14c-0.17,0.1-0.26,0.22-0.26,0.38c0,0.16,0.09,0.27,0.27,0.37
	c0.18,0.1,0.42,0.19,0.7,0.27c0.28,0.09,0.59,0.19,0.91,0.3c0.32,0.11,0.63,0.26,0.91,0.44c0.28,0.18,0.52,0.42,0.7,0.71
	c0.18,0.29,0.27,0.66,0.27,1.1c0,0.92-0.3,1.63-0.9,2.13C20.6,40.9,19.77,41.15,18.71,41.15L18.71,41.15z"/>
<path class="st4" d="M22.9,40.96v-8.17h2.68v8.17H22.9z"/>
<path class="st4" d="M26.89,40.96v-8.17h5.74v1.81h-2.85v1.45h2.6v1.5h-2.6v1.56h2.85v1.86C32.62,40.96,26.89,40.96,26.89,40.96z"/>
<path class="st4" d="M40.31,40.96v-8.17h5.74v1.81h-2.85v1.45h2.6v1.5h-2.6v1.56h2.85v1.86C46.04,40.96,40.31,40.96,40.31,40.96z"/>
<path class="st4" d="M35.05,41.13L35.05,41.13c-0.61-0.26-0.88-0.97-0.6-1.56l2.14-4.63h-2.94v-2.14h5.56v1.86l-2.63,5.88
	C36.3,41.11,35.63,41.37,35.05,41.13z"/>
<path class="st0" d="M-24.04,55.15c-0.86,0-1.6-0.17-2.23-0.52c-0.63-0.35-1.12-0.83-1.47-1.45s-0.52-1.33-0.52-2.14
	c0-0.86,0.18-1.63,0.55-2.29c0.36-0.66,0.87-1.19,1.53-1.57c0.66-0.38,1.42-0.57,2.29-0.57c0.53,0,1,0.06,1.41,0.18
	c0.5,0.14,0.81,0.64,0.72,1.16l0,0.03c-0.1,0.54-0.62,0.88-1.16,0.8c-0.2-0.03-0.4-0.05-0.6-0.05c-0.65,0-1.16,0.19-1.53,0.58
	c-0.37,0.39-0.56,0.93-0.56,1.61s0.17,1.24,0.5,1.63c0.34,0.39,0.77,0.58,1.29,0.58c0.19,0,0.35-0.02,0.48-0.05v-2.03l2.05-0.24
	v3.72c-0.45,0.21-0.91,0.36-1.38,0.46C-23.14,55.1-23.59,55.15-24.04,55.15L-24.04,55.15z"/>
<path class="st0" d="M-13.93,55.15c-0.57,0-1.04-0.09-1.41-0.26s-0.67-0.41-0.89-0.71c-0.22-0.3-0.39-0.65-0.5-1.06
	c-0.11-0.4-0.19-0.84-0.23-1.31h-0.56v3.13h-2.6v-8.17h3.36c1.3,0,2.23,0.23,2.81,0.68c0.57,0.46,0.86,1.07,0.86,1.85
	c0,0.47-0.13,0.88-0.38,1.25s-0.66,0.68-1.22,0.92c0.03,0.17,0.06,0.32,0.08,0.43c0.02,0.11,0.06,0.23,0.11,0.37
	c0.1,0.28,0.23,0.48,0.39,0.59c0.15,0.11,0.37,0.17,0.64,0.17c0.17,0,0.35-0.02,0.52-0.07l0.14,1.95c-0.16,0.06-0.33,0.12-0.5,0.16
	S-13.7,55.15-13.93,55.15L-13.93,55.15z M-17.52,50.2h0.45c0.59,0,1-0.07,1.24-0.2c0.24-0.13,0.36-0.35,0.36-0.67
	c0-0.27-0.1-0.47-0.3-0.59c-0.2-0.12-0.51-0.18-0.94-0.18h-0.82V50.2L-17.52,50.2z"/>
<path class="st0" d="M-8.27,55.15c-0.79,0-1.49-0.14-2.09-0.43s-1.07-0.69-1.4-1.23c-0.33-0.53-0.5-1.17-0.5-1.92v-4.79h2.64v4.67
	c0,0.53,0.13,0.92,0.39,1.17S-8.64,53-8.22,53c0.44,0,0.78-0.13,1.02-0.38c0.23-0.25,0.35-0.6,0.35-1.04v-4.78h2.67v4.78
	c0,0.7-0.17,1.33-0.52,1.86c-0.35,0.54-0.83,0.96-1.44,1.26C-6.76,55-7.47,55.15-8.27,55.15L-8.27,55.15z"/>
<path class="st0" d="M-3.04,53.65v-6.87h2.77c1.35,0,2.36,0.22,3.05,0.66c0.68,0.44,1.03,1.09,1.03,1.94c0,0.59-0.15,1.1-0.45,1.51
	c-0.3,0.42-0.71,0.73-1.25,0.95c-0.54,0.22-1.17,0.33-1.9,0.33h-0.62v1.48c0,0.72-0.59,1.31-1.31,1.31l0,0
	C-2.46,54.96-3.05,54.37-3.04,53.65L-3.04,53.65z M0.09,50.52c0.42,0,0.74-0.09,0.97-0.26s0.34-0.44,0.34-0.78
	c0-0.32-0.11-0.57-0.33-0.73c-0.22-0.16-0.54-0.24-0.96-0.24h-0.53v2.02H0.09L0.09,50.52z"/>
<path class="st0" d="M8.66,55.15c-0.86,0-1.62-0.18-2.28-0.55c-0.66-0.36-1.17-0.87-1.54-1.51c-0.37-0.64-0.55-1.38-0.55-2.21
	c0-0.83,0.18-1.58,0.55-2.22c0.37-0.64,0.88-1.14,1.54-1.51s1.42-0.55,2.28-0.55s1.62,0.18,2.28,0.54c0.66,0.36,1.17,0.86,1.54,1.5
	c0.37,0.64,0.55,1.39,0.55,2.23c0,0.85-0.18,1.57-0.55,2.21c-0.37,0.64-0.88,1.14-1.54,1.51S9.53,55.15,8.66,55.15L8.66,55.15z
	 M8.66,52.99c0.5,0,0.91-0.19,1.23-0.58c0.32-0.39,0.48-0.9,0.48-1.53c0-0.43-0.07-0.8-0.22-1.13s-0.35-0.58-0.61-0.77
	c-0.26-0.19-0.56-0.28-0.9-0.28c-0.5,0-0.91,0.2-1.22,0.6c-0.32,0.4-0.48,0.92-0.48,1.57s0.16,1.14,0.48,1.53
	C7.74,52.8,8.16,52.99,8.66,52.99L8.66,52.99z"/>
<path class="st1" d="M18.71,55.15c-0.5,0-1.01-0.06-1.52-0.18c-0.51-0.12-0.95-0.29-1.31-0.49l0.43-1.94
	c0.46,0.25,0.89,0.41,1.29,0.48c0.4,0.08,0.77,0.11,1.11,0.11c0.32,0,0.56-0.05,0.72-0.15c0.16-0.1,0.24-0.24,0.24-0.42
	c0-0.16-0.09-0.28-0.27-0.37c-0.18-0.09-0.42-0.18-0.71-0.26c-0.29-0.08-0.6-0.17-0.92-0.28c-0.32-0.11-0.63-0.25-0.92-0.43
	c-0.29-0.18-0.52-0.42-0.71-0.71c-0.18-0.3-0.27-0.67-0.27-1.12c0-0.57,0.14-1.06,0.42-1.48c0.28-0.42,0.67-0.74,1.19-0.96
	c0.51-0.23,1.12-0.34,1.82-0.34c0.47,0,0.92,0.06,1.37,0.18c0.45,0.12,0.81,0.29,1.07,0.49l-0.4,1.75c-0.4-0.17-0.77-0.29-1.09-0.36
	c-0.32-0.07-0.62-0.11-0.91-0.11c-0.33,0-0.59,0.05-0.76,0.14c-0.17,0.1-0.26,0.22-0.26,0.38c0,0.16,0.09,0.27,0.27,0.37
	c0.18,0.1,0.42,0.19,0.7,0.27c0.28,0.09,0.59,0.19,0.91,0.3c0.32,0.11,0.63,0.26,0.91,0.44c0.28,0.18,0.52,0.42,0.7,0.71
	c0.18,0.29,0.27,0.66,0.27,1.1c0,0.92-0.3,1.63-0.9,2.13C20.6,54.9,19.77,55.15,18.71,55.15L18.71,55.15z"/>
<path class="st1" d="M22.9,54.96v-8.17h2.68v8.17H22.9z"/>
<path class="st1" d="M26.89,54.96v-8.17h5.74v1.81h-2.85v1.45h2.6v1.5h-2.6v1.56h2.85v1.86C32.62,54.96,26.89,54.96,26.89,54.96z"/>
<path class="st1" d="M40.31,54.96v-8.17h5.74v1.81h-2.85v1.45h2.6v1.5h-2.6v1.56h2.85v1.86C46.04,54.96,40.31,54.96,40.31,54.96z"/>
<path class="st1" d="M35.05,55.13L35.05,55.13c-0.61-0.26-0.88-0.97-0.6-1.56l2.14-4.63h-2.94v-2.14h5.56v1.86l-2.63,5.88
	C36.3,55.11,35.63,55.37,35.05,55.13z"/>
</svg>
