<?xml version="1.0" encoding="utf-8"?>
<!-- Generator: Adobe Illustrator 24.3.0, SVG Export Plug-In . SVG Version: 6.00 Build 0)  -->
<svg version="1.1" id="uuid-f849c60d-5c7e-45c5-8bfd-aa00836048df"
	 xmlns="http://www.w3.org/2000/svg" xmlns:xlink="http://www.w3.org/1999/xlink" x="0px" y="0px" viewBox="0 0 1132.24 131.12"
	 style="enable-background:new 0 0 1132.24 131.12;" xml:space="preserve">
<style type="text/css">
	.st0{fill:#E85829;}
	.st1{fill:#F7A81B;}
	.st2{fill:#1A4B9A;}
	.st3{fill:#0094B6;}
</style>
<path class="st0" d="M71.7-32.89c-13.03,0-24.34-2.65-33.93-7.96S20.73-53.52,15.42-62.93S7.46-83.2,7.46-95.5
	c0-13.15,2.77-24.79,8.32-34.92s13.33-18.1,23.34-23.89C49.14-160.1,60.78-163,74.05-163c8.06,0,15.2,0.9,21.42,2.69
	c7.65,2.2,12.41,9.81,10.92,17.63l-0.07,0.39c-1.57,8.24-9.45,13.46-17.74,12.19c-2.99-0.46-6.03-0.69-9.1-0.69
	c-9.89,0-17.67,2.96-23.34,8.87c-5.67,5.91-8.51,14.11-8.51,24.61s2.56,18.88,7.69,24.79c5.13,5.91,11.67,8.87,19.63,8.87
	c2.89,0,5.31-0.24,7.24-0.72v-30.94l31.3-3.62v56.64c-6.88,3.14-13.87,5.49-20.99,7.06C85.38-33.66,78.45-32.88,71.7-32.89
	L71.7-32.89z"/>
<path class="st0" d="M225.69-32.89c-8.69,0-15.86-1.3-21.53-3.89s-10.2-6.18-13.57-10.77c-3.38-4.58-5.91-9.95-7.6-16.1
	s-2.84-12.79-3.44-19.9h-8.5v47.77h-39.63v-124.51h51.21c19.78,0,34.05,3.47,42.79,10.41c8.75,6.94,13.12,16.32,13.12,28.14
	c0,7.12-1.93,13.48-5.79,19.09s-10.07,10.29-18.64,14.02c0.48,2.65,0.91,4.83,1.27,6.51c0.36,1.69,0.9,3.56,1.63,5.61
	c1.57,4.34,3.53,7.36,5.88,9.05s5.58,2.53,9.68,2.53c2.65,0,5.31-0.36,7.96-1.09l2.17,29.68c-2.42,0.96-4.98,1.78-7.69,2.44
	S229.19-32.9,225.69-32.89L225.69-32.89z M171.04-108.35h6.88c8.93,0,15.23-1,18.91-2.99c3.68-1.99,5.52-5.4,5.52-10.22
	c0-4.1-1.51-7.09-4.52-8.96c-3.02-1.87-7.78-2.81-14.3-2.81h-12.49v24.97V-108.35z"/>
<path class="st0" d="M312-32.89c-12.06,0-22.68-2.17-31.85-6.51s-16.29-10.59-21.35-18.73c-5.07-8.14-7.6-17.88-7.6-29.22v-72.94
	h40.17v71.11c0,8.08,1.96,14.02,5.88,17.82s9.08,5.7,15.47,5.7c6.75,0,11.91-1.93,15.47-5.79s5.34-9.17,5.34-15.92v-72.92h40.71
	v72.92c0,10.74-2.66,20.21-7.96,28.41c-5.31,8.2-12.64,14.6-21.99,19.18c-9.35,4.58-20.12,6.88-32.3,6.88L312-32.89z"/>
<path class="st0" d="M391.62-55.79v-104.68h42.16c20.51,0,35.98,3.35,46.42,10.04c10.43,6.69,15.65,16.56,15.65,29.59
	c0,9.05-2.26,16.74-6.79,23.07c-4.52,6.33-10.89,11.16-19.09,14.48c-8.21,3.32-17.86,4.98-28.95,4.98h-9.41v22.53
	c0,11.04-8.95,20-20,20l0,0c-11.04,0-20-8.95-20-20L391.62-55.79z M439.39-103.47c6.39,0,11.34-1.33,14.84-3.98
	c3.5-2.65,5.25-6.63,5.25-11.94c0-4.94-1.69-8.65-5.07-11.13c-3.38-2.47-8.26-3.71-14.66-3.71h-8.14v30.76H439.39L439.39-103.47z"/>
<path class="st0" d="M570.04-32.89c-13.15,0-24.73-2.78-34.74-8.32c-10.01-5.55-17.82-13.21-23.43-22.98s-8.41-20.99-8.41-33.66
	s2.8-24.07,8.41-33.84c5.61-9.77,13.42-17.43,23.43-22.98c10.01-5.55,21.59-8.32,34.74-8.32s24.73,2.75,34.74,8.23
	c10.01,5.49,17.82,13.12,23.43,22.89s8.41,21.11,8.41,34.02s-2.8,23.89-8.41,33.66s-13.42,17.43-23.43,22.98
	C594.77-35.66,583.19-32.89,570.04-32.89L570.04-32.89z M570.04-65.82c7.6,0,13.84-2.95,18.73-8.87c4.88-5.91,7.33-13.69,7.33-23.34
	c0-6.51-1.12-12.24-3.35-17.19c-2.23-4.95-5.31-8.84-9.23-11.67s-8.48-4.25-13.67-4.25c-7.6,0-13.81,3.05-18.64,9.14
	s-7.24,14.09-7.24,23.98s2.41,17.43,7.24,23.34C556.04-68.77,562.31-65.81,570.04-65.82L570.04-65.82z"/>
<path class="st1" d="M723.12-32.89c-7.6,0-15.32-0.94-23.16-2.8c-7.84-1.87-14.48-4.37-19.9-7.51l6.51-29.49
	c6.99,3.74,13.54,6.18,19.63,7.33s11.73,1.72,16.92,1.72c4.82,0,8.47-0.78,10.95-2.35c2.47-1.57,3.71-3.68,3.71-6.33
	c0-2.41-1.39-4.31-4.16-5.7c-2.78-1.39-6.36-2.68-10.77-3.89c-4.4-1.21-9.08-2.62-14.02-4.25c-4.95-1.63-9.62-3.8-14.02-6.52
	c-4.4-2.71-7.99-6.33-10.76-10.86c-2.78-4.52-4.16-10.22-4.16-17.1c0-8.69,2.11-16.19,6.33-22.53c4.22-6.33,10.25-11.22,18.1-14.66
	c7.84-3.44,17.07-5.16,27.69-5.16c7.12,0,14.08,0.94,20.9,2.81c6.81,1.87,12.27,4.37,16.38,7.51l-6.15,26.6
	c-6.15-2.53-11.67-4.37-16.56-5.52c-4.89-1.14-9.5-1.72-13.84-1.72c-5.07,0-8.93,0.72-11.58,2.17c-2.66,1.45-3.98,3.38-3.98,5.79
	s1.38,4.16,4.16,5.61c2.77,1.45,6.33,2.84,10.68,4.16c4.34,1.33,8.99,2.84,13.93,4.52c4.94,1.69,9.59,3.92,13.93,6.7
	c4.34,2.78,7.9,6.4,10.68,10.86c2.77,4.46,4.16,10.07,4.16,16.83c0,14-4.55,24.79-13.66,32.39s-21.75,11.4-37.91,11.4L723.12-32.89z
	"/>
<path class="st1" d="M787-35.79v-124.5h40.9v124.5H787z"/>
<path class="st1" d="M847.79-35.79v-124.5h87.4v27.51h-43.43v22.08h39.63v22.8h-39.63v23.7h43.43v28.41
	C935.19-35.79,847.79-35.79,847.79-35.79z"/>
<path class="st1" d="M1052.29-35.79v-124.5h87.4v27.51h-43.43v22.08h39.63v22.8h-39.63v23.7h43.43v28.41
	C1139.69-35.79,1052.29-35.79,1052.29-35.79z"/>
<path class="st1" d="M972.1-33.28L972.1-33.28c-9.25-3.91-13.42-14.71-9.2-23.82l32.64-70.56h-44.88v-32.63h84.69V-132l-40.12,89.62
	C991.28-33.56,981-29.51,972.1-33.28z"/>
<path class="st2" d="M64.24,130.11c-13.03,0-24.34-2.65-33.93-7.96c-9.59-5.31-17.04-12.67-22.35-22.08S0,79.8,0,67.5
	c0-13.15,2.77-24.79,8.32-34.92s13.33-18.1,23.34-23.89c10.02-5.79,21.66-8.69,34.93-8.69c8.06,0,15.2,0.9,21.42,2.69
	c7.65,2.2,12.41,9.81,10.92,17.63l-0.07,0.39c-1.57,8.24-9.45,13.46-17.74,12.19c-2.99-0.46-6.03-0.69-9.1-0.69
	c-9.89,0-17.67,2.96-23.34,8.87s-8.51,14.11-8.51,24.61s2.56,18.88,7.69,24.79c5.13,5.91,11.67,8.87,19.63,8.87
	c2.89,0,5.31-0.24,7.24-0.72V67.69l31.3-3.62v56.64c-6.88,3.14-13.87,5.49-20.99,7.06C77.92,129.34,70.99,130.12,64.24,130.11
	L64.24,130.11z"/>
<path class="st2" d="M218.23,130.11c-8.69,0-15.86-1.3-21.53-3.89c-5.67-2.59-10.2-6.18-13.57-10.77c-3.38-4.58-5.91-9.95-7.6-16.1
	s-2.84-12.79-3.44-19.9h-8.5v47.77h-39.63V2.7h51.21c19.78,0,34.05,3.47,42.79,10.41c8.75,6.94,13.12,16.32,13.12,28.14
	c0,7.12-1.93,13.48-5.79,19.09c-3.86,5.61-10.07,10.29-18.64,14.02c0.48,2.65,0.91,4.83,1.27,6.51c0.36,1.69,0.9,3.56,1.63,5.61
	c1.57,4.34,3.53,7.36,5.88,9.05c2.35,1.69,5.58,2.53,9.68,2.53c2.65,0,5.31-0.36,7.96-1.09l2.17,29.68
	c-2.42,0.96-4.98,1.78-7.69,2.44C224.84,129.76,221.73,130.1,218.23,130.11L218.23,130.11z M163.58,54.65h6.88
	c8.93,0,15.23-1,18.91-2.99c3.68-1.99,5.52-5.4,5.52-10.22c0-4.1-1.51-7.09-4.52-8.96c-3.02-1.87-7.78-2.81-14.3-2.81h-12.49v24.97
	V54.65z"/>
<path class="st2" d="M304.54,130.11c-12.06,0-22.68-2.17-31.85-6.51s-16.29-10.59-21.35-18.73c-5.07-8.14-7.6-17.88-7.6-29.22V2.7
	h40.17v71.11c0,8.08,1.96,14.02,5.88,17.82c3.92,3.8,9.08,5.7,15.47,5.7c6.75,0,11.91-1.93,15.47-5.79
	c3.56-3.86,5.34-9.17,5.34-15.92V2.7h40.71v72.92c0,10.74-2.66,20.21-7.96,28.41c-5.31,8.2-12.64,14.6-21.99,19.18
	c-9.35,4.58-20.12,6.88-32.3,6.88L304.54,130.11z"/>
<path class="st2" d="M384.16,107.21V2.52h42.16c20.51,0,35.98,3.35,46.42,10.04c10.43,6.69,15.65,16.56,15.65,29.59
	c0,9.05-2.26,16.74-6.79,23.07c-4.52,6.33-10.89,11.16-19.09,14.48c-8.21,3.32-17.86,4.98-28.95,4.98h-9.41v22.53
	c0,11.04-8.95,20-20,20l0,0c-11.04,0-20-8.95-20-20L384.16,107.21z M431.93,59.53c6.39,0,11.34-1.33,14.84-3.98
	c3.5-2.65,5.25-6.63,5.25-11.94c0-4.94-1.69-8.65-5.07-11.13c-3.38-2.47-8.26-3.71-14.66-3.71h-8.14v30.76H431.93L431.93,59.53z"/>
<path class="st2" d="M562.58,130.11c-13.15,0-24.73-2.78-34.74-8.32c-10.01-5.55-17.82-13.21-23.43-22.98S496,77.82,496,65.15
	s2.8-24.07,8.41-33.84c5.61-9.77,13.42-17.43,23.43-22.98C537.85,2.77,549.43,0,562.58,0c13.15,0,24.73,2.75,34.74,8.23
	c10.01,5.49,17.82,13.12,23.43,22.89s8.41,21.11,8.41,34.02s-2.8,23.89-8.41,33.66s-13.42,17.43-23.43,22.98
	C587.32,127.34,575.74,130.11,562.58,130.11L562.58,130.11z M562.58,97.18c7.6,0,13.84-2.95,18.73-8.87
	c4.88-5.91,7.33-13.69,7.33-23.34c0-6.51-1.12-12.24-3.35-17.19c-2.23-4.95-5.31-8.84-9.23-11.67c-3.92-2.83-8.48-4.25-13.67-4.25
	c-7.6,0-13.81,3.05-18.64,9.14c-4.83,6.09-7.24,14.09-7.24,23.98c0,9.89,2.41,17.43,7.24,23.34
	C548.58,94.23,554.85,97.19,562.58,97.18L562.58,97.18z"/>
<path class="st3" d="M715.67,130.11c-7.6,0-15.32-0.94-23.16-2.8c-7.84-1.87-14.48-4.37-19.9-7.51l6.51-29.49
	c6.99,3.74,13.54,6.18,19.63,7.33s11.73,1.72,16.92,1.72c4.82,0,8.47-0.78,10.95-2.35c2.47-1.57,3.71-3.68,3.71-6.33
	c0-2.41-1.39-4.31-4.16-5.7c-2.78-1.39-6.36-2.68-10.77-3.89c-4.4-1.21-9.08-2.62-14.02-4.25c-4.95-1.63-9.62-3.8-14.02-6.52
	c-4.4-2.71-7.99-6.33-10.76-10.86c-2.78-4.52-4.16-10.22-4.16-17.1c0-8.69,2.11-16.19,6.33-22.53c4.22-6.33,10.25-11.22,18.1-14.66
	C704.71,1.72,713.94,0,724.56,0c7.12,0,14.08,0.94,20.9,2.81c6.81,1.87,12.27,4.37,16.38,7.51l-6.15,26.6
	c-6.15-2.53-11.67-4.37-16.56-5.52c-4.89-1.14-9.5-1.72-13.84-1.72c-5.07,0-8.93,0.72-11.58,2.17c-2.66,1.45-3.98,3.38-3.98,5.79
	c0,2.41,1.38,4.16,4.16,5.61c2.77,1.45,6.33,2.84,10.68,4.16c4.34,1.33,8.99,2.84,13.93,4.52c4.94,1.69,9.59,3.92,13.93,6.7
	c4.34,2.78,7.9,6.4,10.68,10.86c2.77,4.46,4.16,10.07,4.16,16.83c0,14-4.55,24.79-13.66,32.39c-9.11,7.6-21.75,11.4-37.91,11.4
	L715.67,130.11z"/>
<path class="st3" d="M779.55,127.21V2.7h40.9v124.5H779.55z"/>
<path class="st3" d="M840.34,127.21V2.7h87.4v27.51h-43.43V52.3h39.63v22.8h-39.63v23.7h43.43v28.41
	C927.74,127.21,840.34,127.21,840.34,127.21z"/>
<path class="st3" d="M1044.84,127.21V2.7h87.4v27.51h-43.43V52.3h39.63v22.8h-39.63v23.7h43.43v28.41
	C1132.24,127.21,1044.84,127.21,1044.84,127.21z"/>
<path class="st3" d="M964.65,129.72L964.65,129.72c-9.25-3.91-13.42-14.71-9.2-23.82l32.64-70.56h-44.88V2.7h84.69V31l-40.12,89.62
	C983.83,129.44,973.55,133.49,964.65,129.72z"/>
</svg>
