<?xml version="1.0" encoding="utf-8"?>
<!-- Generator: Adobe Illustrator 24.3.0, SVG Export Plug-In . SVG Version: 6.00 Build 0)  -->
<svg version="1.1" id="Capa_1" xmlns="http://www.w3.org/2000/svg" xmlns:xlink="http://www.w3.org/1999/xlink" x="0px" y="0px"
	 viewBox="0 0 16 16" style="enable-background:new 0 0 16 16;" xml:space="preserve">
<style type="text/css">
	.st0{fill:#E8582B;}
	.st1{fill:#F8A91F;}
</style>
<path class="st0" d="M5.39,13.46c-1.09,0-2.04-0.22-2.85-0.67s-1.43-1.06-1.88-1.85C0.22,10.15,0,9.24,0,8.2
	c0-1.1,0.23-2.08,0.7-2.93s1.12-1.52,1.96-2C3.5,2.79,4.47,2.54,5.59,2.54c0.68,0,1.28,0.08,1.8,0.23C8.03,2.95,8.42,3.59,8.3,4.25
	L8.29,4.28C8.16,4.97,7.5,5.41,6.81,5.3C6.55,5.26,6.3,5.24,6.04,5.24c-0.83,0-1.48,0.25-1.96,0.74S3.37,7.17,3.37,8.05
	s0.21,1.58,0.65,2.08c0.43,0.5,0.98,0.74,1.65,0.74c0.24,0,0.45-0.02,0.61-0.06v-2.6l2.63-0.3v4.75c-0.58,0.26-1.16,0.46-1.76,0.59
	C6.54,13.39,5.96,13.46,5.39,13.46L5.39,13.46z"/>
<path class="st1" d="M10.69,13.27L10.69,13.27c-0.78-0.33-1.13-1.23-0.77-2l2.74-5.92H8.9V2.61H16v2.37l-3.37,7.52
	C12.3,13.25,11.44,13.58,10.69,13.27z"/>
</svg>
