<?xml version="1.0" encoding="UTF-8"?>
<svg id="uuid-f849c60d-5c7e-45c5-8bfd-aa00836048df" data-name="Capa 1" xmlns="http://www.w3.org/2000/svg" viewBox="0 0 1132.24 131.12">
  <defs>
    <style>
      .uuid-2a925668-c975-40e2-8056-6684ac161125 {
        fill: #e85829;
      }

      .uuid-2a925668-c975-40e2-8056-6684ac161125, .uuid-aaa1d21d-e33a-43ec-99b1-312ed6b7a95d {
        stroke-width: 0px;
      }

      .uuid-aaa1d21d-e33a-43ec-99b1-312ed6b7a95d {
        fill: #f7a81b;
      }
    </style>
  </defs>
  <path class="uuid-2a925668-c975-40e2-8056-6684ac161125" d="m64.24,130.11c-13.03,0-24.34-2.65-33.93-7.96-9.59-5.31-17.04-12.67-22.35-22.08C2.65,90.66,0,79.8,0,67.5c0-13.15,2.77-24.79,8.32-34.92,5.55-10.13,13.33-18.1,23.34-23.89C41.68,2.9,53.32,0,66.59,0c8.06,0,15.2.9,21.42,2.69,7.65,2.2,12.41,9.81,10.92,17.63l-.07.39c-1.57,8.24-9.45,13.46-17.74,12.19-2.99-.46-6.03-.69-9.1-.69-9.89,0-17.67,2.96-23.34,8.87-5.67,5.91-8.51,14.11-8.51,24.61s2.56,18.88,7.69,24.79c5.13,5.91,11.67,8.87,19.63,8.87,2.89,0,5.31-.24,7.24-.72v-30.94l31.3-3.62v56.64c-6.88,3.14-13.87,5.49-20.99,7.06-7.12,1.57-14.05,2.35-20.81,2.35Z"/>
  <path class="uuid-2a925668-c975-40e2-8056-6684ac161125" d="m218.23,130.11c-8.69,0-15.86-1.3-21.53-3.89-5.67-2.59-10.2-6.18-13.57-10.77-3.38-4.58-5.91-9.95-7.6-16.1-1.69-6.15-2.84-12.79-3.44-19.9h-8.5v47.77h-39.63V2.71h51.21c19.78,0,34.05,3.47,42.79,10.41,8.75,6.94,13.12,16.32,13.12,28.14,0,7.12-1.93,13.48-5.79,19.09-3.86,5.61-10.07,10.29-18.64,14.02.48,2.65.91,4.83,1.27,6.51.36,1.69.9,3.56,1.63,5.61,1.57,4.34,3.53,7.36,5.88,9.05,2.35,1.69,5.58,2.53,9.68,2.53,2.65,0,5.31-.36,7.96-1.09l2.17,29.68c-2.42.96-4.98,1.78-7.69,2.44-2.71.66-5.82,1-9.32,1Zm-54.65-75.46h6.88c8.93,0,15.23-1,18.91-2.99,3.68-1.99,5.52-5.4,5.52-10.22,0-4.1-1.51-7.09-4.52-8.96-3.02-1.87-7.78-2.81-14.3-2.81h-12.49v24.97Z"/>
  <path class="uuid-2a925668-c975-40e2-8056-6684ac161125" d="m304.54,130.11c-12.06,0-22.68-2.17-31.85-6.51-9.17-4.34-16.29-10.59-21.35-18.73-5.07-8.14-7.6-17.88-7.6-29.22V2.71h40.17v71.11c0,8.08,1.96,14.02,5.88,17.82,3.92,3.8,9.08,5.7,15.47,5.7,6.75,0,11.91-1.93,15.47-5.79,3.56-3.86,5.34-9.17,5.34-15.92V2.71h40.71v72.92c0,10.74-2.66,20.21-7.96,28.41-5.31,8.2-12.64,14.6-21.99,19.18-9.35,4.58-20.12,6.88-32.3,6.88Z"/>
  <path class="uuid-2a925668-c975-40e2-8056-6684ac161125" d="m384.16,107.21V2.53h42.16c20.51,0,35.98,3.35,46.42,10.04,10.43,6.69,15.65,16.56,15.65,29.59,0,9.05-2.26,16.74-6.79,23.07-4.52,6.33-10.89,11.16-19.09,14.48-8.21,3.32-17.86,4.98-28.95,4.98h-9.41v22.53c0,11.04-8.95,20-20,20h0c-11.04,0-20-8.95-20-20Zm47.77-47.68c6.39,0,11.34-1.33,14.84-3.98,3.5-2.65,5.25-6.63,5.25-11.94,0-4.94-1.69-8.65-5.07-11.13-3.38-2.47-8.26-3.71-14.66-3.71h-8.14v30.76h7.78Z"/>
  <path class="uuid-2a925668-c975-40e2-8056-6684ac161125" d="m562.58,130.11c-13.15,0-24.73-2.78-34.74-8.32-10.01-5.55-17.82-13.21-23.43-22.98-5.61-9.77-8.41-20.99-8.41-33.66s2.8-24.07,8.41-33.84c5.61-9.77,13.42-17.43,23.43-22.98,10.01-5.55,21.59-8.32,34.74-8.32s24.73,2.75,34.74,8.23c10.01,5.49,17.82,13.12,23.43,22.89,5.61,9.77,8.41,21.11,8.41,34.02s-2.8,23.89-8.41,33.66c-5.61,9.77-13.42,17.43-23.43,22.98-10.01,5.55-21.59,8.32-34.74,8.32Zm0-32.93c7.6,0,13.84-2.95,18.73-8.87,4.88-5.91,7.33-13.69,7.33-23.34,0-6.51-1.12-12.24-3.35-17.19-2.23-4.95-5.31-8.84-9.23-11.67-3.92-2.83-8.48-4.25-13.67-4.25-7.6,0-13.81,3.05-18.64,9.14-4.83,6.09-7.24,14.09-7.24,23.98s2.41,17.43,7.24,23.34c4.83,5.91,11.1,8.87,18.82,8.87Z"/>
  <path class="uuid-aaa1d21d-e33a-43ec-99b1-312ed6b7a95d" d="m715.66,130.11c-7.6,0-15.32-.94-23.16-2.8-7.84-1.87-14.48-4.37-19.9-7.51l6.51-29.49c6.99,3.74,13.54,6.18,19.63,7.33,6.09,1.15,11.73,1.72,16.92,1.72,4.82,0,8.47-.78,10.95-2.35,2.47-1.57,3.71-3.68,3.71-6.33,0-2.41-1.39-4.31-4.16-5.7-2.78-1.39-6.36-2.68-10.77-3.89-4.4-1.21-9.08-2.62-14.02-4.25-4.95-1.63-9.62-3.8-14.02-6.52-4.4-2.71-7.99-6.33-10.76-10.86-2.78-4.52-4.16-10.22-4.16-17.1,0-8.69,2.11-16.19,6.33-22.53,4.22-6.33,10.25-11.22,18.1-14.66,7.84-3.44,17.07-5.16,27.69-5.16,7.12,0,14.08.94,20.9,2.81,6.81,1.87,12.27,4.37,16.38,7.51l-6.15,26.6c-6.15-2.53-11.67-4.37-16.56-5.52-4.89-1.14-9.5-1.72-13.84-1.72-5.07,0-8.93.72-11.58,2.17-2.66,1.45-3.98,3.38-3.98,5.79s1.38,4.16,4.16,5.61c2.77,1.45,6.33,2.84,10.68,4.16,4.34,1.33,8.99,2.84,13.93,4.52,4.94,1.69,9.59,3.92,13.93,6.7,4.34,2.78,7.9,6.4,10.68,10.86,2.77,4.46,4.16,10.07,4.16,16.83,0,14-4.55,24.79-13.66,32.39-9.11,7.6-21.75,11.4-37.91,11.4Z"/>
  <path class="uuid-aaa1d21d-e33a-43ec-99b1-312ed6b7a95d" d="m779.54,127.21V2.71h40.9v124.5h-40.9Z"/>
  <path class="uuid-aaa1d21d-e33a-43ec-99b1-312ed6b7a95d" d="m840.33,127.21V2.71h87.4v27.51h-43.43v22.08h39.63v22.8h-39.63v23.7h43.43v28.41h-87.4Z"/>
  <path class="uuid-aaa1d21d-e33a-43ec-99b1-312ed6b7a95d" d="m1044.83,127.21V2.71h87.4v27.51h-43.43v22.08h39.63v22.8h-39.63v23.7h43.43v28.41h-87.4Z"/>
  <path class="uuid-aaa1d21d-e33a-43ec-99b1-312ed6b7a95d" d="m964.64,129.72h0c-9.25-3.91-13.42-14.71-9.2-23.82l32.64-70.56h-44.88V2.71h84.69v28.29l-40.12,89.62c-3.95,8.82-14.23,12.87-23.13,9.1Z"/>
</svg>